<?xml version="1.0" standalone="no"?>
<!DOCTYPE svg PUBLIC "-//W3C//DTD SVG 20010904//EN"
 "http://www.w3.org/TR/2001/REC-SVG-20010904/DTD/svg10.dtd">
<svg version="1.0" xmlns="http://www.w3.org/2000/svg"
 width="311.374357pt" height="398.937695pt" viewBox="0 0 311.374357 398.937695"
 preserveAspectRatio="xMidYMid meet">
<metadata>
Created by Potrace Professional 1.1m
</metadata>
<g transform="translate(-0.608302,400.000000) rotate(-360.00) scale(0.095238,-0.095238)"
fill="#000000" stroke="none">
<path d="M8 3373 c-2 -455 -2 -909 -1 -1010 1 -181 18 -506 30 -578 59 -366
113 -529 248 -754 159 -266 255 -359 619 -601 329 -220 295 -198 483 -300 229
-123 228 -122 282 -117 39 4 170 58 242 101 9 5 65 34 126 65 232 117 549 349
761 558 152 148 161 160 248 310 73 126 97 177 124 271 18 63 40 136 48 160 9
25 20 84 26 132 36 298 37 370 25 1769 l-7 821 -1626 0 -1625 0 -3 -827z
m3188 -283 c9 -1198 2 -1395 -56 -1621 -12 -44 -31 -103 -43 -131 -12 -29 -29
-71 -36 -95 -7 -24 -50 -107 -96 -183 -89 -151 -163 -235 -377 -423 -164 -146
-433 -315 -764 -481 -121 -60 -154 -73 -183 -68 -58 9 -429 211 -559 304 -67
48 -164 115 -216 148 -126 82 -241 180 -331 283 -82 95 -225 302 -272 394 -32
64 -116 337 -116 379 0 14 -7 46 -16 71 -9 25 -23 124 -33 221 -14 145 -18
352 -22 1202 l-4 1026 1558 0 1559 0 7 -1026z"/>
<path d="M1619 3576 c-203 -39 -379 -119 -481 -221 -112 -111 -182 -274 -182
-419 -1 -152 64 -249 213 -321 128 -62 325 -105 473 -105 l69 0 -38 -71 c-21
-39 -42 -75 -46 -80 -7 -8 -156 4 -314 26 -90 12 -276 79 -347 125 -63 40 -96
92 -103 158 -6 64 -18 62 -57 -7 -78 -137 -91 -196 -71 -305 17 -87 60 -153
135 -206 83 -57 150 -78 324 -103 247 -34 226 -28 219 -61 -23 -94 -192 -287
-282 -321 -28 -11 -53 -17 -56 -14 -3 3 4 25 16 49 62 122 -6 263 -128 264
-101 0 -185 -139 -154 -256 34 -125 230 -184 359 -109 94 55 260 256 309 371
l16 38 71 -6 c39 -3 99 -10 133 -16 34 -6 104 -16 156 -21 149 -16 258 -65
307 -137 20 -30 24 -50 24 -118 0 -45 4 -82 9 -82 5 0 34 25 64 57 112 119
144 262 90 409 -18 50 -37 83 -56 98 -97 71 -258 120 -465 139 -72 7 -132 14
-134 17 -3 2 16 37 41 78 l45 74 80 -6 c379 -32 673 -157 713 -305 16 -58 15
-213 -2 -268 -32 -105 -201 -340 -355 -495 l-102 -102 -59 42 c-91 63 -127 78
-269 114 -172 42 -261 42 -524 0 -159 -25 -456 -161 -524 -241 -15 -17 -47
-47 -71 -65 -39 -31 -140 -156 -125 -155 3 0 47 23 97 52 50 28 113 59 139 67
175 55 166 54 384 54 188 0 219 -3 294 -24 114 -33 256 -103 356 -177 l83 -60
31 36 c17 20 59 72 93 116 34 44 66 82 71 84 5 2 51 56 101 119 50 64 123 146
161 184 82 80 313 352 375 440 132 190 156 417 65 622 -71 160 -339 274 -699
297 -42 2 -80 7 -83 11 -9 9 33 62 144 182 55 59 104 115 108 123 5 8 40 37
79 64 39 27 87 65 108 83 20 18 47 40 60 49 20 13 21 18 9 34 -17 24 -46 16
-84 -22 l-27 -27 -61 62 c-89 90 -181 138 -328 168 -153 32 -296 39 -397 20z
m34 -148 c92 -24 155 -63 232 -142 48 -50 79 -95 107 -153 21 -46 45 -91 53
-100 20 -24 -3 -72 -69 -143 l-51 -55 -141 11 c-293 21 -463 75 -573 184 -70
70 -80 110 -44 186 28 61 113 153 167 181 37 20 153 44 220 46 21 0 65 -6 99
-15z"/>
</g>
</svg>
